<?xml version="1.0" encoding="utf-8"?>
<!-- Generator: Adobe Illustrator 16.0.0, SVG Export Plug-In . SVG Version: 6.00 Build 0)  -->
<!DOCTYPE svg PUBLIC "-//W3C//DTD SVG 1.1//EN" "http://www.w3.org/Graphics/SVG/1.1/DTD/svg11.dtd">
<svg version="1.1" id="Layer_1" xmlns="http://www.w3.org/2000/svg" xmlns:xlink="http://www.w3.org/1999/xlink" x="0px" y="0px"
	 width="821.731px" height="204.564px" viewBox="0 0 821.731 204.564" enable-background="new 0 0 821.731 204.564"
	 xml:space="preserve">
<g>
	<path fill="#FFFFFF" d="M21.098,57.605H1.512V3.6h19.441c16.778,0,23.762,7.993,23.762,26.786
		C44.716,49.972,36.867,57.605,21.098,57.605z M20.882,12.745h-9.433v35.787h9.433c9.361,0,13.465-3.24,13.465-18.217
		C34.347,16.345,30.603,12.745,20.882,12.745z"/>
	<path fill="#FFFFFF" d="M77.617,52.997l-0.216-0.072c-2.664,3.385-7.057,5.4-12.241,5.4c-8.065,0-13.393-4.464-13.393-14.113
		c0-8.137,5.472-13.393,15.553-13.393c3.384,0,6.552,0.576,9,1.368v-3.24c0-5.4-2.592-7.561-9.073-7.561
		c-4.68,0-8.064,0.72-12.025,2.448l-0.792-7.562c4.249-1.872,9.073-2.808,14.473-2.808c12.097,0,16.489,5.185,16.489,16.85v27.29
		h-6.984L77.617,52.997z M76.321,38.523c-1.08-0.504-3.744-1.224-7.344-1.224c-5.905,0-8.569,2.376-8.569,6.769
		c0,5.04,3.024,6.841,7.272,6.841c4.537,0,8.641-2.881,8.641-6.049V38.523z"/>
	<path fill="#FFFFFF" d="M121.249,57.605V29.594c0-5.472-2.952-7.776-8.28-7.776c-3.241,0-6.841,1.44-8.641,3.96v31.827h-9.145
		V14.473l6.552-0.504l1.44,4.177c3.24-3.024,7.632-4.681,12.313-4.681c9.145,0,14.905,5.544,14.905,16.058v28.082H121.249z"/>
	<path fill="#FFFFFF" d="M149.688,30.531h6.192l10.657-16.273h10.369l-13.177,19.729l13.609,23.618h-10.441L155.88,38.164h-6.192
		v19.441h-9.145V1.224l9.145-0.504V30.531z"/>
	<path fill="#FFFFFF" d="M238.609,42.772c0,10.152-5.76,15.625-17.642,15.625c-11.881,0-17.569-5.688-17.569-15.625V14.257h9.145
		v28.299c0,4.968,2.736,7.561,8.497,7.561c5.616,0,8.425-2.521,8.425-7.561V14.257h9.145V42.772z"/>
	<path fill="#FFFFFF" d="M254.301,58.397c-3.672,0-5.4-1.368-5.4-4.896c0-3.168,1.728-4.969,5.4-4.969c3.745,0,5.4,1.801,5.4,4.969
		C259.702,56.597,258.046,58.397,254.301,58.397z M250.557,42.412L249.117,3.6h9.937l-1.44,38.812H250.557z"/>
</g>
<g>
	<path fill="#FFFFFF" d="M308.226,8.208v49.396h-4.752V8.208h-16.921l0.144-4.608h38.451l0.072,4.608H308.226z"/>
	<path fill="#FFFFFF" d="M360.931,57.605v-28.73c0-6.553-3.528-10.297-11.089-10.297c-5.256,0-9.721,2.592-11.593,5.832v33.195
		h-4.393V0.36L338.249,0v13.969l-0.072,5.761l0.144,0.071c2.953-3.528,7.489-5.472,12.673-5.472c9.361,0,14.329,5.112,14.329,14.545
		v28.73H360.931z"/>
	<path fill="#FFFFFF" d="M402.474,51.628l-0.216-0.072c-2.304,4.032-7.345,6.697-13.249,6.697c-7.705,0-13.033-3.816-13.033-13.321
		c0-8.065,4.968-12.673,15.337-12.673c3.816,0,7.705,0.792,10.585,1.872v-5.257c0-8.064-3.384-10.657-10.873-10.657
		c-4.393,0-8.353,0.792-12.025,2.664l-0.504-3.815c4.033-1.873,8.353-2.809,13.25-2.809c10.369,0,14.545,4.248,14.545,15.266v28.082
		h-3.312L402.474,51.628z M401.898,37.587c-1.08-0.792-4.825-2.017-9.937-2.017c-8.208,0-11.809,3.385-11.809,9.289
		c0,7.2,4.32,9.648,10.009,9.648c6.193,0,11.737-4.32,11.737-8.425V37.587z"/>
	<path fill="#FFFFFF" d="M446.25,57.605V28.947c0-7.272-4.032-10.369-11.233-10.369c-4.176,0-9.217,2.017-11.592,5.761v33.267h-4.32
		V15.193l3.096-0.287l0.792,5.112h0.216c2.881-3.528,7.777-5.617,12.889-5.617c9.002,0,14.475,4.681,14.475,14.474v28.73H446.25z"/>
	<path fill="#FFFFFF" d="M468.28,32.691h6.768l14.834-17.642h5.617l-16.49,19.441l17.209,23.114h-5.545L475.048,36.58h-6.768v21.025
		h-4.393V0.288L468.28,0V32.691z"/>
	<path fill="#FFFFFF" d="M515.296,58.469c-5.041,0-9.793-1.368-12.961-3.889l0.721-3.96c3.096,2.592,7.848,4.032,12.168,4.032
		c7.201,0,10.225-3.673,10.225-8.569c0-11.377-22.896-6.48-22.896-20.521c0-6.912,4.967-11.161,14.113-11.161
		c4.031,0,7.775,0.792,11.16,2.448l-0.432,3.816c-3.529-1.584-7.273-2.376-10.801-2.376c-6.049,0-9.865,2.736-9.865,7.057
		c0,10.585,22.826,5.328,22.826,20.306C529.554,53.357,525.161,58.469,515.296,58.469z"/>
	<path fill="#FFFFFF" d="M544.095,58.325c-2.16,0-3.312-0.863-3.312-3.096c0-2.017,1.152-3.169,3.312-3.169
		c2.305,0,3.312,1.152,3.312,3.169C547.407,57.245,546.399,58.325,544.095,58.325z M542.366,43.852L541.575,3.6h4.752l-0.793,40.252
		H542.366z"/>
	<path fill="#FFFFFF" d="M603.71,57.605h-17.713V3.6h17.641c15.914,0,22.684,7.633,22.684,26.786
		C626.321,50.117,619.048,57.605,603.71,57.605z M603.495,8.208h-12.746v44.86h12.818c11.881,0,17.785-4.824,17.785-22.683
		C621.353,13.321,616.024,8.208,603.495,8.208z"/>
	<path fill="#FFFFFF" d="M662.39,51.628l-0.215-0.072c-2.305,4.032-7.346,6.697-13.25,6.697c-7.705,0-13.033-3.816-13.033-13.321
		c0-8.065,4.969-12.673,15.338-12.673c3.816,0,7.705,0.792,10.584,1.872v-5.257c0-8.064-3.383-10.657-10.873-10.657
		c-4.391,0-8.352,0.792-12.023,2.664l-0.504-3.815c4.031-1.873,8.352-2.809,13.248-2.809c10.369,0,14.545,4.248,14.545,15.266
		v28.082h-3.312L662.39,51.628z M661.813,37.587c-1.08-0.792-4.824-2.017-9.936-2.017c-8.209,0-11.809,3.385-11.809,9.289
		c0,7.2,4.32,9.648,10.008,9.648c6.193,0,11.736-4.32,11.736-8.425V37.587z"/>
	<path fill="#FFFFFF" d="M706.167,57.605V28.947c0-7.272-4.031-10.369-11.232-10.369c-4.178,0-9.217,2.017-11.594,5.761v33.267
		h-4.32V15.193l3.096-0.287l0.793,5.112h0.217c2.879-3.528,7.775-5.617,12.889-5.617c9,0,14.473,4.681,14.473,14.474v28.73H706.167z
		"/>
	<path fill="#FFFFFF" d="M728.196,32.691h6.77l14.832-17.642h5.617l-16.49,19.441l17.211,23.114h-5.545L734.966,36.58h-6.77v21.025
		h-4.393V0.288L728.196,0V32.691z"/>
</g>
<g>
	<path fill="#FFFFFF" d="M760.601,34.923c0-13.321,5.689-20.522,16.922-20.522c9.576,0,16.273,5.833,16.273,19.586
		c0,0.648-0.072,1.584-0.145,2.16h-28.586c0.217,13.609,4.752,18.218,14.904,18.218c4.465,0,8.137-1.08,11.738-3.024l0.576,3.816
		c-3.672,2.088-7.777,3.312-12.746,3.312C766.001,58.469,760.601,51.34,760.601,34.923z M789.763,33.051
		c-0.143-10.729-5.184-14.762-12.24-14.762c-8.354,0-12.098,4.969-12.529,14.762H789.763z"/>
	<path fill="#FFFFFF" d="M821.731,31.395v3.456h-18.219v-3.456H821.731z"/>
</g>
<g>
	<path fill="#FFFFFF" d="M12.961,130.477c-5.04,0-9.792-1.367-12.961-3.889l0.72-3.959c3.096,2.592,7.849,4.031,12.169,4.031
		c7.201,0,10.225-3.672,10.225-8.568c0-11.377-22.898-6.48-22.898-20.522c0-6.912,4.969-11.161,14.113-11.161
		c4.033,0,7.777,0.792,11.161,2.448l-0.432,3.816c-3.528-1.584-7.272-2.376-10.801-2.376c-6.049,0-9.865,2.736-9.865,7.057
		c0,10.585,22.826,5.328,22.826,20.306C27.218,125.365,22.826,130.477,12.961,130.477z"/>
	<path fill="#FFFFFF" d="M62.642,92.818c-2.664-1.296-5.977-2.232-9.361-2.232c-9.937,0-13.825,5.112-13.825,17.282
		c0,13.752,4.681,18.648,13.681,18.648c3.601,0,7.129-1.008,9.793-2.951l0.432,3.816c-2.521,1.871-6.625,3.168-11.017,3.168
		c-11.665,0-17.425-6.625-17.425-22.682c0-14.473,5.328-21.458,17.498-21.458c3.96,0,7.776,1.009,10.585,2.377L62.642,92.818z"/>
	<path fill="#FFFFFF" d="M101.233,129.613v-28.731c0-6.553-3.528-10.297-11.089-10.297c-5.256,0-9.721,2.592-11.593,5.832v33.196
		h-4.393V72.368l4.393-0.36v13.97l-0.072,5.761l0.144,0.071c2.953-3.528,7.489-5.472,12.673-5.472
		c9.361,0,14.329,5.112,14.329,14.545v28.731H101.233z"/>
	<path fill="#FFFFFF" d="M133.704,130.549c-12.385,0-17.929-6.193-17.929-22.105c0-15.77,5.616-22.035,17.929-22.035
		c12.458,0,17.714,6.265,17.714,22.035C151.417,124.355,146.161,130.549,133.704,130.549z M133.704,126.732
		c9.505,0,13.177-5.041,13.177-18.289c0-13.177-3.672-18.146-13.177-18.146c-9.577,0-13.393,4.969-13.393,18.146
		C120.311,121.764,124.127,126.732,133.704,126.732z M128.231,77.913c-1.656,0-2.521-0.721-2.521-2.736
		c0-1.729,0.864-2.809,2.521-2.809s2.52,1.008,2.52,2.809C130.751,77.048,129.888,77.913,128.231,77.913z M138.96,77.913
		c-1.656,0-2.521-0.721-2.521-2.736c0-1.729,0.864-2.809,2.521-2.809c1.656,0,2.52,1.008,2.52,2.809
		C141.48,77.048,140.616,77.913,138.96,77.913z"/>
	<path fill="#FFFFFF" d="M189.504,129.613v-28.659c0-7.272-4.032-10.369-11.233-10.369c-4.176,0-9.217,2.017-11.593,5.761v33.267
		h-4.32V87.201l3.096-0.287l0.792,5.112h0.216c2.88-3.528,7.777-5.617,12.889-5.617c9.001,0,14.473,4.681,14.473,14.474v28.731
		H189.504z"/>
	<path fill="#FFFFFF" d="M210.814,130.332c-2.16,0-3.312-0.863-3.312-3.096c0-2.016,1.152-3.168,3.312-3.168
		c2.304,0,3.312,1.152,3.312,3.168S213.118,130.332,210.814,130.332z M209.086,115.859l-0.792-40.251h4.752l-0.792,40.251H209.086z"
		/>
	<path fill="#FFFFFF" d="M258.333,75.608l17.065,41.98l2.088,5.4h0.216l2.016-5.4l17.065-41.98h5.544v54.005h-4.249V89.217
		l0.144-5.832l-0.216-0.072l-2.088,5.473l-16.633,40.828h-3.6l-16.634-40.612l-2.088-5.473l-0.144,0.072l0.072,5.832v40.18h-4.176
		V75.608H258.333z"/>
	<path fill="#FFFFFF" d="M314.42,106.932c0-13.322,5.688-20.523,16.921-20.523c9.577,0,16.273,5.833,16.273,19.585
		c0,0.648-0.072,1.584-0.144,2.16h-28.586c0.216,13.609,4.752,18.219,14.905,18.219c4.464,0,8.137-1.08,11.737-3.025l0.576,3.816
		c-3.672,2.088-7.777,3.312-12.745,3.312C319.821,130.477,314.42,123.348,314.42,106.932z M343.583,105.059
		c-0.144-10.729-5.185-14.761-12.241-14.761c-8.353,0-12.097,4.969-12.529,14.761H343.583z"/>
	<path fill="#FFFFFF" d="M358.413,129.613V87.345l3.528-0.288l0.144,4.752l0.144,5.833h0.144
		c2.448-6.625,7.417-11.089,13.825-11.089c1.44,0,2.809,0.144,4.033,0.504l-0.36,4.536c-1.224-0.432-2.52-0.576-3.888-0.576
		c-7.201,0-13.249,6.625-13.249,16.922v21.674H358.413z"/>
</g>
<g>
	<path fill="#FFFFFF" d="M413.784,92.818c-2.664-1.296-5.977-2.232-9.361-2.232c-9.937,0-13.825,5.112-13.825,17.282
		c0,13.752,4.681,18.648,13.681,18.648c3.601,0,7.129-1.008,9.793-2.951l0.433,3.816c-2.521,1.871-6.625,3.168-11.018,3.168
		c-11.665,0-17.425-6.625-17.425-22.682c0-14.473,5.328-21.458,17.498-21.458c3.96,0,7.776,1.009,10.585,2.377L413.784,92.818z"/>
	<path fill="#FFFFFF" d="M429.118,78.417c-2.16,0-3.385-0.72-3.385-3.024c0-1.944,1.225-3.024,3.385-3.024s3.384,1.08,3.384,3.024
		C432.502,77.48,431.278,78.417,429.118,78.417z M426.886,129.613V87.345l4.393-0.36v42.628H426.886z"/>
	<path fill="#FFFFFF" d="M451.149,130.332c-2.16,0-3.312-0.863-3.312-3.096c0-2.016,1.152-3.168,3.312-3.168
		c2.305,0,3.312,1.152,3.312,3.168S453.454,130.332,451.149,130.332z M449.421,115.859l-0.791-40.251h4.752l-0.793,40.251H449.421z"
		/>
	<path fill="#FFFFFF" d="M529.056,127.453c-3.816,1.871-9.504,3.168-15.408,3.168c-16.273,0-23.547-8.064-23.547-27.795
		c0-20.089,7.416-28.083,23.689-28.083c5.041,0,10.369,1.08,13.969,2.665l-0.646,4.392c-3.674-1.584-8.064-2.664-13.105-2.664
		c-12.889,0-19.01,5.473-19.01,23.618c0,17.211,5.4,23.258,18.578,23.258c4.393,0,8.137-0.719,11.232-2.016v-22.753h4.248V127.453z"
		/>
	<path fill="#FFFFFF" d="M541.005,129.613V87.345l3.527-0.288l0.145,4.752l0.145,5.833h0.143
		c2.449-6.625,7.418-11.089,13.826-11.089c1.439,0,2.809,0.144,4.031,0.504l-0.359,4.536c-1.225-0.432-2.52-0.576-3.889-0.576
		c-7.199,0-13.248,6.625-13.248,16.922v21.674H541.005z"/>
</g>
<g>
	<path fill="#FFFFFF" d="M595.579,123.637l-0.215-0.072c-2.305,4.031-7.346,6.697-13.25,6.697c-7.705,0-13.033-3.816-13.033-13.322
		c0-8.064,4.969-12.672,15.338-12.672c3.816,0,7.705,0.791,10.584,1.871v-5.256c0-8.064-3.383-10.657-10.873-10.657
		c-4.391,0-8.352,0.792-12.023,2.664l-0.504-3.815c4.031-1.873,8.352-2.809,13.248-2.809c10.369,0,14.545,4.248,14.545,15.266
		v28.083h-3.312L595.579,123.637z M595.003,109.596c-1.08-0.793-4.824-2.018-9.936-2.018c-8.209,0-11.809,3.385-11.809,9.289
		c0,7.201,4.32,9.648,10.008,9.648c6.193,0,11.736-4.32,11.736-8.424V109.596z"/>
	<path fill="#FFFFFF" d="M637.196,92.818c-2.666-1.296-5.977-2.232-9.361-2.232c-9.938,0-13.826,5.112-13.826,17.282
		c0,13.752,4.682,18.648,13.682,18.648c3.6,0,7.129-1.008,9.793-2.951l0.432,3.816c-2.52,1.871-6.625,3.168-11.016,3.168
		c-11.666,0-17.426-6.625-17.426-22.682c0-14.473,5.328-21.458,17.496-21.458c3.961,0,7.777,1.009,10.586,2.377L637.196,92.818z"/>
	<path fill="#FFFFFF" d="M652.528,78.417c-2.16,0-3.383-0.72-3.383-3.024c0-1.944,1.223-3.024,3.383-3.024s3.385,1.08,3.385,3.024
		C655.913,77.48,654.688,78.417,652.528,78.417z M650.296,129.613V87.345l4.393-0.36v42.628H650.296z"/>
	<path fill="#FFFFFF" d="M694.722,123.637l-0.215-0.072c-2.305,4.031-7.346,6.697-13.25,6.697c-7.705,0-13.033-3.816-13.033-13.322
		c0-8.064,4.969-12.672,15.338-12.672c3.816,0,7.705,0.791,10.584,1.871v-5.256c0-8.064-3.383-10.657-10.873-10.657
		c-4.391,0-8.352,0.792-12.023,2.664l-0.504-3.815c4.031-1.873,8.352-2.809,13.248-2.809c10.369,0,14.545,4.248,14.545,15.266
		v28.083h-3.312L694.722,123.637z M694.146,109.596c-1.08-0.793-4.824-2.018-9.936-2.018c-8.209,0-11.809,3.385-11.809,9.289
		c0,7.201,4.32,9.648,10.008,9.648c6.193,0,11.736-4.32,11.736-8.424V109.596z"/>
	<path fill="#FFFFFF" d="M721.937,130.477c-5.041,0-9.793-1.367-12.961-3.889l0.721-3.959c3.096,2.592,7.848,4.031,12.168,4.031
		c7.201,0,10.225-3.672,10.225-8.568c0-11.377-22.896-6.48-22.896-20.522c0-6.912,4.967-11.161,14.113-11.161
		c4.031,0,7.775,0.792,11.16,2.448l-0.432,3.816c-3.529-1.584-7.273-2.376-10.801-2.376c-6.049,0-9.865,2.736-9.865,7.057
		c0,10.585,22.826,5.328,22.826,20.306C736.194,125.365,731.802,130.477,721.937,130.477z"/>
	<path fill="#FFFFFF" d="M750.735,130.332c-2.16,0-3.312-0.863-3.312-3.096c0-2.016,1.152-3.168,3.312-3.168
		c2.305,0,3.312,1.152,3.312,3.168S753.04,130.332,750.735,130.332z M749.007,115.859l-0.791-40.251h4.752l-0.793,40.251H749.007z"
		/>
</g>
<g>
	<path fill="#FFFFFF" d="M39.531,199.453c-3.816,1.871-9.504,3.168-15.409,3.168c-16.273,0-23.546-8.064-23.546-27.795
		c0-20.09,7.417-28.082,23.69-28.082c5.041,0,10.369,1.08,13.969,2.664l-0.648,4.393c-3.672-1.584-8.065-2.664-13.105-2.664
		c-12.889,0-19.009,5.473-19.009,23.617c0,17.211,5.4,23.258,18.578,23.258c4.392,0,8.137-0.719,11.233-2.016v-22.754h4.248V199.453
		z"/>
	<path fill="#FFFFFF" d="M51.48,201.613v-42.268l3.528-0.289l0.144,4.752l0.144,5.834h0.144c2.448-6.625,7.417-11.09,13.825-11.09
		c1.44,0,2.809,0.145,4.033,0.504l-0.36,4.537c-1.224-0.432-2.52-0.576-3.888-0.576c-7.201,0-13.249,6.625-13.249,16.922v21.674
		H51.48z"/>
</g>
<g>
	<path fill="#FFFFFF" d="M106.064,195.637l-0.216-0.072c-2.304,4.031-7.345,6.697-13.249,6.697c-7.705,0-13.033-3.816-13.033-13.322
		c0-8.064,4.968-12.672,15.337-12.672c3.816,0,7.705,0.791,10.585,1.871v-5.256c0-8.064-3.384-10.658-10.873-10.658
		c-4.393,0-8.353,0.793-12.025,2.664l-0.504-3.814c4.033-1.873,8.353-2.809,13.25-2.809c10.369,0,14.545,4.248,14.545,15.266v28.082
		h-3.312L106.064,195.637z M105.488,181.596c-1.08-0.793-4.825-2.018-9.937-2.018c-8.208,0-11.809,3.385-11.809,9.289
		c0,7.201,4.32,9.648,10.009,9.648c6.193,0,11.737-4.32,11.737-8.424V181.596z"/>
	<path fill="#FFFFFF" d="M129.462,192.973l-3.312,4.535l0.072,0.217h24.122l-0.144,3.889h-29.307v-3.168l20.666-30.604l3.312-4.607
		l-0.072-0.145h-22.97l0.144-3.961h28.083v3.24L129.462,192.973z"/>
	<path fill="#FFFFFF" d="M166.109,150.416c-2.16,0-3.384-0.719-3.384-3.023c0-1.945,1.224-3.025,3.384-3.025s3.384,1.08,3.384,3.025
		C169.494,149.48,168.27,150.416,166.109,150.416z M163.877,201.613v-42.268l4.392-0.361v42.629H163.877z"/>
	<path fill="#FFFFFF" d="M181.301,178.932c0-13.322,5.688-20.523,16.921-20.523c9.577,0,16.273,5.834,16.273,19.586
		c0,0.648-0.072,1.584-0.144,2.16h-28.586c0.216,13.609,4.752,18.219,14.905,18.219c4.464,0,8.137-1.08,11.737-3.025l0.576,3.816
		c-3.672,2.088-7.777,3.312-12.745,3.312C186.701,202.477,181.301,195.348,181.301,178.932z M210.463,177.059
		c-0.144-10.729-5.185-14.762-12.241-14.762c-8.353,0-12.097,4.969-12.529,14.762H210.463z"/>
	<path fill="#FFFFFF" d="M229.397,202.332c-2.16,0-3.312-0.863-3.312-3.096c0-2.016,1.152-3.168,3.312-3.168
		c2.304,0,3.312,1.152,3.312,3.168S231.701,202.332,229.397,202.332z M227.669,187.859l-0.792-40.252h4.752l-0.792,40.252H227.669z"
		/>
</g>
<g>
	<path fill="#FFFFFF" d="M270.505,152.576c3.024,0.865,6.841,1.152,13.465,1.152c0.216,0,0.504,0,1.8-0.072
		c0.072-1.729,0.072-1.729,0.36-5.4c0.072-0.791,0.216-3.6,0.216-4.104c0-0.145,0-0.576-0.072-1.08l5.616,0.359
		c-0.648,2.016-1.008,4.465-1.512,10.08c11.737-0.574,21.962-2.088,27.434-4.031l0.288,5.041c-0.936,0.143-1.152,0.143-2.52,0.359
		c-7.849,1.439-18.794,2.664-25.49,2.881c-0.432,6.119-0.432,6.119-0.504,9.648c3.672-1.008,6.841-1.441,10.657-1.441
		c1.512,0,2.376,0.072,4.176,0.217c0.864-2.16,1.44-4.32,1.728-6.48l4.969,1.512c-0.216,0.432-1.008,2.377-2.232,5.762
		c9.937,2.303,15.481,8.424,15.481,16.85c0,7.057-3.889,12.744-11.305,16.633c-4.104,2.16-8.208,3.312-14.689,4.104
		c-0.648-2.088-1.008-2.879-2.304-4.824c4.248-0.145,7.344-0.719,10.801-1.943c7.849-2.736,12.385-7.992,12.385-14.402
		c0-6.191-4.104-10.512-11.881-12.529c-4.176,9.723-8.064,15.914-13.681,21.604c-5.544,5.76-11.017,8.713-16.057,8.713
		c-5.401,0-9.289-4.537-9.289-10.945c0-8.857,6.265-16.922,16.706-21.459c0.072-5.256,0.072-5.615,0.432-10.873h-2.88
		c-0.72,0-3.96-0.143-9.721-0.359c-0.648-0.072-1.152-0.072-1.296-0.072c-0.288,0-0.648,0-1.152,0.072L270.505,152.576z
		 M277.418,179.219c-2.808,3.312-4.392,7.129-4.392,10.729c0,3.961,2.088,6.553,5.184,6.553c2.665,0,5.041-1.08,8.281-3.672
		c-1.008-5.545-1.44-10.801-1.44-19.514C281.522,175.258,279.434,176.914,277.418,179.219z M290.595,189.875
		c0.72-1.15,0.792-1.295,1.368-1.871c4.68-5.4,7.705-10.441,11.017-18.002c-2.304-0.145-2.665-0.145-3.457-0.145
		c-3.312,0-6.697,0.576-10.009,1.656c0.072,9.289,0.144,10.514,0.792,16.49c0.072,0.432,0.072,0.576,0.072,1.008
		c0,0.072,0,0.432,0,0.793L290.595,189.875z"/>
	<path fill="#FFFFFF" d="M348.555,143.863c-0.576,1.512-1.008,3.529-1.656,7.418c-1.152,7.271-2.16,15.121-2.376,18.793l0.288,0.072
		c0.144-0.576,0.144-0.576,0.504-2.088c0.864-3.961,2.304-7.49,4.393-10.73c4.032-6.191,8.785-9.287,14.401-9.287
		c4.681,0,8.713,2.23,11.521,6.408c3.024,4.465,4.32,9.793,4.32,17.496c0,13.033-5.833,22.898-16.634,28.299
		c-3.456,1.729-7.776,3.168-12.817,4.248c-0.864-2.16-1.296-2.951-2.88-4.896c6.697-1.008,10.441-2.16,14.617-4.535
		c8.425-4.824,12.385-12.385,12.385-23.906c0-11.594-4.032-18.289-10.945-18.289c-5.473,0-10.081,4.104-14.186,12.529
		c-2.52,5.256-3.888,10.801-3.888,16.057c0,0.287,0,0.648,0.072,1.729l-5.184,0.215c0-0.359,0-0.646,0-0.791l-0.072-1.297
		l-0.144-7.488c0-0.648,0-1.297,0-1.656c0-7.057,0.648-13.824,2.448-26.57c0.144-1.08,0.216-1.439,0.216-2.305L348.555,143.863z"/>
</g>
<g>
	<path fill="#FFFFFF" d="M393.485,162.082c2.592-0.072,10.081-0.938,15.913-1.873c1.224-5.4,2.16-12.24,2.16-15.266
		c0-0.143,0-0.504,0-0.936l5.761,0.648c-0.504,1.512-0.721,2.809-1.369,6.912c-0.359,2.088-0.863,4.752-1.512,8.209
		c1.656-0.145,2.592-0.217,4.248-0.217c5.113,0,8.137,0.865,10.369,3.025c2.521,2.375,3.528,5.688,3.528,11.592
		c0,11.018-1.872,20.594-4.824,24.771c-1.728,2.447-3.673,3.383-7.057,3.383c-3.097,0-6.12-0.791-10.873-2.807
		c0.144-1.08,0.144-1.584,0.144-2.594c0-1.08,0-1.512-0.216-2.807c4.104,2.088,8.137,3.311,10.729,3.311
		c1.8,0,3.168-1.15,4.104-3.455c1.945-4.609,3.025-11.953,3.025-20.018c0-7.633-2.16-10.082-8.857-10.082
		c-1.584,0-2.52,0.072-5.185,0.361c-2.664,11.305-5.976,20.594-10.873,30.459c-0.936,1.799-2.448,4.68-4.681,8.711l-4.896-2.879
		c2.232-2.809,4.969-7.633,7.489-13.033c3.384-7.201,5.544-13.537,7.921-22.826c-6.193,0.936-9.649,1.512-10.297,1.656
		c-1.656,0.287-2.232,0.432-4.177,0.936L393.485,162.082z M440.793,155.457c7.345,7.92,11.665,15.338,15.05,25.49l-4.609,2.592
		c-2.736-9.865-7.705-18.65-14.689-25.85L440.793,155.457z M444.608,145.52c3.312,3.602,4.969,5.762,7.633,10.082l-3.455,2.16
		c-2.089-3.816-4.393-6.914-7.489-10.227L444.608,145.52z M451.161,141.775c3.312,3.6,4.969,5.832,7.633,10.152l-3.455,2.16
		c-2.09-3.816-4.393-6.912-7.489-10.225L451.161,141.775z"/>
	<path fill="#FFFFFF" d="M481.038,144.008c0.289,4.824,2.953,16.633,5.4,23.834c4.248-1.729,6.266-2.52,17.426-6.408
		c2.52-0.936,3.168-1.152,4.607-1.873l2.162,5.473c-5.041,1.08-15.338,4.393-21.676,6.984c-12.312,4.896-17.641,9.65-17.641,15.627
		c0,6.551,5.545,9.072,19.658,9.072c8.279,0,16.346-0.936,20.594-2.449l0.576,5.977c-1.369,0-1.369,0-5.328,0.432
		c-7.418,0.721-10.873,0.938-15.914,0.938c-7.129,0-12.529-0.648-15.986-1.945c-5.904-2.16-8.928-6.119-8.928-11.809
		c0-4.607,2.16-8.785,6.408-12.24c2.736-2.232,4.969-3.602,9.434-5.834c-2.018-5.904-3.385-10.943-5.258-20.16
		c-0.646-3.025-0.791-3.385-1.223-4.537L481.038,144.008z"/>
</g>
<g>
	<path fill="#FFFFFF" d="M525.241,167.338c1.656-0.145,1.656-0.145,7.273-1.225c9.576-1.799,16.273-2.592,21.961-2.592
		c5.4,0,9.434,0.863,12.387,2.736c4.031,2.52,6.119,6.48,6.119,11.449c0,7.705-4.393,14.545-12.385,19.441
		c-5.473,3.312-10.152,4.824-20.881,6.84c-0.938-2.879-1.225-3.527-2.305-5.256c7.633-0.504,14.186-2.377,20.234-5.832
		c2.879-1.584,4.463-2.881,6.191-5.113c2.449-3.24,3.672-6.48,3.672-9.793c0-3.6-1.656-6.48-4.607-8.064
		c-1.801-1.008-5.113-1.584-8.857-1.584c-7.416,0-21.818,2.52-27.434,4.824L525.241,167.338z M535.827,144.871
		c7.057,2.664,17.498,4.32,29.307,4.465l-0.793,5.186c-11.736-0.648-20.594-2.018-30.242-4.754L535.827,144.871z"/>
</g>
<g>
	<path fill="#FFFFFF" d="M591.63,202.332c-2.16,0-3.312-0.863-3.312-3.096c0-2.016,1.152-3.168,3.312-3.168
		c2.303,0,3.311,1.152,3.311,3.168S593.933,202.332,591.63,202.332z M589.901,187.859l-0.793-40.252h4.752l-0.791,40.252H589.901z"
		/>
</g>
</svg>
