<?xml version="1.0" encoding="utf-8"?>
<!-- Generator: Adobe Illustrator 16.0.0, SVG Export Plug-In . SVG Version: 6.00 Build 0)  -->
<!DOCTYPE svg PUBLIC "-//W3C//DTD SVG 1.1//EN" "http://www.w3.org/Graphics/SVG/1.1/DTD/svg11.dtd">
<svg version="1.1" id="Layer_1" xmlns="http://www.w3.org/2000/svg" xmlns:xlink="http://www.w3.org/1999/xlink" x="0px" y="0px"
	 width="207.089px" height="40px" viewBox="0 0 207.089 40" enable-background="new 0 0 207.089 40" xml:space="preserve">
<polygon fill="#FFFFFF" points="26.667,40 40,40 40,26.667 26.667,26.667 26.667,40 "/>
<path fill="#FFFFFF" d="M26.667,0H13.333v13.333H2.249C1.012,13.333,0,14.345,0,15.582v8.837c0,1.236,1.012,2.248,2.249,2.248
	h24.418V0L26.667,0z"/>
<path fill="#FFFFFF" d="M51.084,13.333H40v13.333h11.084c1.237,0,2.248-1.012,2.248-2.248v-8.837
	C53.333,14.345,52.321,13.333,51.084,13.333L51.084,13.333z"/>
<path fill="#FFFFFF" d="M73.212,26.725h-4.541V9.495h4.541c4.681,0,6.483,1.734,6.483,8.459
	C79.696,25.166,77.719,26.725,73.212,26.725L73.212,26.725z M73.248,5.093h-9.361v26.001h9.43c7.592,0,11.371-3.676,11.371-13.105
	C84.688,8.941,81.326,5.093,73.248,5.093L73.248,5.093z"/>
<path fill="#FFFFFF" d="M89.249,3.29c-1.768,0-2.635,0.762-2.635,2.115c0,1.526,0.867,2.045,2.635,2.045
	c1.802,0,2.635-0.659,2.635-2.045C91.884,4.052,91.051,3.29,89.249,3.29L89.249,3.29z"/>
<polygon fill="#FFFFFF" points="86.996,31.094 91.469,31.094 91.469,10.12 86.996,10.362 86.996,31.094 "/>
<path fill="#FFFFFF" d="M101.266,19.375c-1.942,0-3.294-0.624-3.294-3.05c0-2.08,0.901-3.051,3.398-3.051
	c2.391,0,3.396,0.797,3.396,3.051C104.767,18.44,103.969,19.375,101.266,19.375L101.266,19.375z M98.284,28.424l5.027,0.382
	c2.843,0.208,3.501,0.832,3.501,2.011c0,1.49-1.074,2.496-5.373,2.496c-3.12,0-4.403-0.936-4.403-2.67
	C97.036,29.917,97.487,29.083,98.284,28.424L98.284,28.424z M109.968,9.842l-3.468,1.248c-1.456-0.935-3.363-1.212-5.165-1.212
	c-5.583,0-7.697,2.531-7.697,6.379c0,2.427,0.936,3.952,2.391,4.888l-0.035,0.069c-1.733,0.729-2.564,2.012-2.564,3.398
	c0,1.386,0.693,2.391,1.629,2.98c-1.179,0.971-1.803,2.254-1.803,3.605c0,3.225,2.462,5.513,8.286,5.513
	c6.657,0,9.258-2.53,9.258-6.552c0-3.086-1.768-4.82-6.727-5.166l-5.026-0.347c-1.076-0.069-1.561-0.556-1.561-1.144
	c0-0.521,0.416-0.973,1.109-1.248c0.867,0.172,1.803,0.242,2.739,0.242c5.547,0,7.661-2.253,7.661-6.241
	c0-0.971-0.14-1.803-0.417-2.496l2.323-1.734L109.968,9.842L109.968,9.842z"/>
<polygon fill="#FFFFFF" points="113.017,31.094 117.49,31.094 117.49,10.12 113.017,10.362 113.017,31.094 "/>
<path fill="#FFFFFF" d="M115.271,3.29c-1.768,0-2.636,0.762-2.636,2.115c0,1.526,0.868,2.045,2.636,2.045
	c1.802,0,2.635-0.659,2.635-2.045C117.906,4.052,117.073,3.29,115.271,3.29L115.271,3.29z"/>
<path fill="#FFFFFF" d="M126.641,4.988l-3.466,0.347l-0.799,4.889h-2.737v3.397h2.601v11.717c0,3.849,1.941,6.102,5.858,6.102
	c1.282,0,2.565-0.242,3.259-0.553l-0.277-3.295c-0.381,0.139-1.145,0.242-1.699,0.242c-1.768,0-2.739-0.762-2.739-2.6V13.621h4.89
	v-3.397h-4.89V4.988L126.641,4.988z"/>
<path fill="#FFFFFF" d="M142.054,27.696c-2.045,0-3.397-0.936-4.125-2.113v-9.673c0.9-1.283,2.392-2.045,4.264-2.045
	c3.051,0,4.542,1.421,4.542,6.726C146.735,26.379,144.828,27.696,142.054,27.696L142.054,27.696z M143.337,9.877
	c-2.323,0-4.402,0.832-5.895,2.253l-0.866-1.976l-3.12,0.208v25.967h4.473v-3.951l-0.07-2.809l0.104-0.035
	c1.386,1.456,3.224,1.941,5.2,1.941c4.959,0,8.113-3.328,8.113-10.851C151.277,12.615,148.468,9.877,143.337,9.877L143.337,9.877z"
	/>
<path fill="#FFFFFF" d="M164.472,24.958c0,1.525-1.977,2.912-4.16,2.912c-2.047,0-3.502-0.867-3.502-3.293
	c0-2.115,1.283-3.26,4.125-3.26c1.733,0,3.016,0.348,3.537,0.59V24.958L164.472,24.958z M160.9,9.842
	c-2.6,0-4.923,0.451-6.967,1.352l0.381,3.64c1.906-0.832,3.535-1.179,5.789-1.179c3.121,0,4.369,1.04,4.369,3.641v1.56
	c-1.18-0.382-2.703-0.659-4.334-0.659c-4.854,0-7.488,2.53-7.488,6.449c0,4.646,2.564,6.794,6.448,6.794
	c2.496,0,4.61-0.971,5.894-2.6l0.104,0.035l0.383,2.219h3.361v-13.14C168.839,12.338,166.725,9.842,160.9,9.842L160.9,9.842z"/>
<polygon fill="#FFFFFF" points="171.148,31.094 175.621,31.094 175.621,10.12 171.148,10.362 171.148,31.094 "/>
<path fill="#FFFFFF" d="M173.402,3.29c-1.77,0-2.635,0.762-2.635,2.115c0,1.526,0.865,2.045,2.635,2.045
	c1.802,0,2.634-0.659,2.634-2.045C176.036,4.052,175.204,3.29,173.402,3.29L173.402,3.29z"/>
<path fill="#FFFFFF" d="M187.393,9.842c-2.253,0-4.368,0.797-5.929,2.253l-0.693-2.011l-3.154,0.243v20.767h4.402V15.77
	c0.867-1.212,2.6-1.906,4.162-1.906c2.562,0,3.986,1.109,3.986,3.744v13.486h4.402V17.574
	C194.57,12.512,191.796,9.842,187.393,9.842L187.393,9.842z"/>
<path fill="#FFFFFF" d="M207.089,13.621v-3.397h-4.887V4.988l-3.467,0.347l-0.798,4.889h-2.739v3.397h2.6v11.717
	c0,3.849,1.941,6.102,5.859,6.102c1.283,0,2.566-0.242,3.26-0.553l-0.277-3.295c-0.381,0.139-1.145,0.242-1.699,0.242
	c-1.768,0-2.738-0.762-2.738-2.6V13.621H207.089L207.089,13.621z"/>
</svg>
